<svg width="130" height="25" viewBox="0 0 130 25" fill="none" xmlns="http://www.w3.org/2000/svg">
<path fill-rule="evenodd" clip-rule="evenodd" d="M17.7393 9.2575C17.7189 14.3305 13.7557 18.4364 8.86969 18.4364C3.9711 18.4364 0 14.3092 0 9.21818C0 4.12712 3.9711 0 8.86969 0C12.8985 0 16.2999 2.79162 17.3808 6.61517C18.2528 6.49254 19.1533 6.42847 20.0735 6.42847C20.9937 6.42847 21.8942 6.49254 22.7662 6.61517C23.8471 2.79162 27.2485 0 31.2773 0C36.1759 0 40.147 4.12712 40.147 9.21818C40.147 14.3092 36.1759 18.4364 31.2773 18.4364C26.3914 18.4364 22.4281 14.3305 22.4077 9.2575C21.6553 9.15236 20.8747 9.09689 20.0735 9.09689C19.2724 9.09689 18.4918 9.15236 17.7393 9.2575ZM8.86969 15.5254C12.2214 15.5254 14.9384 12.7015 14.9384 9.21818C14.9384 5.73482 12.2214 2.911 8.86969 2.911C5.51802 2.911 2.80096 5.73482 2.80096 9.21818C2.80096 12.7015 5.51802 15.5254 8.86969 15.5254ZM31.2773 15.5254C34.629 15.5254 37.3461 12.7015 37.3461 9.21818C37.3461 5.73482 34.629 2.911 31.2773 2.911C27.9257 2.911 25.2086 5.73482 25.2086 9.21818C25.2086 12.7015 27.9257 15.5254 31.2773 15.5254Z" fill="white"/>
<path d="M22.8745 21.3474C22.8745 22.9551 21.6204 24.2584 20.0735 24.2584C18.5266 24.2584 17.2726 22.9551 17.2726 21.3474C17.2726 19.7397 18.5266 19.1641 20.0735 19.1641C21.6204 19.1641 22.8745 19.7397 22.8745 21.3474Z" fill="white"/>
<path d="M46.5195 0.638397H56.506V2.84838H49.3652V5.31533H52.7942C54.2907 5.31533 55.4278 5.61799 56.2055 6.22331C56.995 6.82862 57.3897 7.70234 57.3897 8.84444C57.3897 10.0437 56.9537 10.9745 56.0818 11.6369C55.2098 12.2993 53.9784 12.6305 52.3877 12.6305H46.5195V0.638397ZM52.2286 10.5747C52.9592 10.5747 53.5189 10.4377 53.9077 10.1636C54.2966 9.87805 54.491 9.46689 54.491 8.9301C54.491 7.87936 53.7369 7.35399 52.2286 7.35399H49.3652V10.5747H52.2286Z" fill="#FFAB2D"/>
<path d="M63.0507 3.27667C64.5237 3.27667 65.6549 3.6193 66.4444 4.30456C67.2338 4.97841 67.6286 6.00059 67.6286 7.37112V12.6305H65.048V11.4827C64.5295 12.3393 63.5633 12.7676 62.1493 12.7676C61.4187 12.7676 60.7824 12.6477 60.2404 12.4078C59.7101 12.168 59.3036 11.8368 59.0208 11.4142C58.738 10.9916 58.5966 10.5119 58.5966 9.97513C58.5966 9.11855 58.9265 8.44471 59.5864 7.9536C60.2581 7.46249 61.2891 7.21694 62.6796 7.21694H64.8713C64.8713 6.63446 64.6886 6.18904 64.3233 5.88067C63.9581 5.56088 63.4101 5.40099 62.6796 5.40099C62.1729 5.40099 61.6721 5.48094 61.1772 5.64083C60.694 5.7893 60.2816 5.99488 59.9399 6.25757L58.9501 4.39022C59.4686 4.03617 60.0872 3.76206 60.806 3.5679C61.5366 3.37375 62.2848 3.27667 63.0507 3.27667ZM62.8386 10.9688C63.31 10.9688 63.7283 10.866 64.0936 10.6604C64.4588 10.4434 64.7181 10.1293 64.8713 9.71816V8.77592H62.98C61.8488 8.77592 61.2832 9.13568 61.2832 9.85521C61.2832 10.1978 61.4187 10.4719 61.6897 10.6775C61.9725 10.8717 62.3555 10.9688 62.8386 10.9688Z" fill="#FFAB2D"/>
<path d="M70.0238 3.41372H72.7635V7.01136H76.8995V3.41372H79.6568V12.6305H76.8995V9.18708H72.7635V12.6305H70.0238V3.41372Z" fill="#FFAB2D"/>
<path d="M88.5671 8.10043H86.4803V13.1346H83.4805V0.638397H86.4803V5.69044H88.6417L92.0701 0.638397H95.2562L90.9894 6.67229L95.3867 13.1346H91.9583L88.5671 8.10043Z" fill="white"/>
<path d="M102.72 3.38757C103.652 3.38757 104.496 3.59584 105.254 4.01238C106.024 4.41702 106.627 4.99422 107.062 5.744C107.496 6.48187 107.714 7.3447 107.714 8.3325C107.714 9.32029 107.496 10.1891 107.062 10.9389C106.627 11.6767 106.024 12.2539 105.254 12.6705C104.496 13.0751 103.652 13.2774 102.72 13.2774C101.441 13.2774 100.435 12.8906 99.7017 12.1171V16.5979H96.795V3.53038H99.5713V4.63719C100.292 3.80411 101.341 3.38757 102.72 3.38757ZM102.217 10.9924C102.962 10.9924 103.571 10.7544 104.043 10.2783C104.528 9.79039 104.77 9.14178 104.77 8.3325C104.77 7.52322 104.528 6.88056 104.043 6.40451C103.571 5.91656 102.962 5.67259 102.217 5.67259C101.472 5.67259 100.857 5.91656 100.372 6.40451C99.9004 6.88056 99.6644 7.52322 99.6644 8.3325C99.6644 9.14178 99.9004 9.79039 100.372 10.2783C100.857 10.7544 101.472 10.9924 102.217 10.9924Z" fill="white"/>
<path d="M114.446 13.2774C113.39 13.2774 112.44 13.0692 111.595 12.6526C110.763 12.2242 110.111 11.6351 109.639 10.8853C109.167 10.1355 108.931 9.28459 108.931 8.3325C108.931 7.3804 109.167 6.52947 109.639 5.7797C110.111 5.02993 110.763 4.44677 111.595 4.03023C112.44 3.60179 113.39 3.38757 114.446 3.38757C115.502 3.38757 116.446 3.60179 117.278 4.03023C118.111 4.44677 118.763 5.02993 119.235 5.7797C119.707 6.52947 119.943 7.3804 119.943 8.3325C119.943 9.28459 119.707 10.1355 119.235 10.8853C118.763 11.6351 118.111 12.2242 117.278 12.6526C116.446 13.0692 115.502 13.2774 114.446 13.2774ZM114.446 10.9924C115.192 10.9924 115.8 10.7544 116.272 10.2783C116.757 9.79039 116.999 9.14178 116.999 8.3325C116.999 7.52322 116.757 6.88056 116.272 6.40451C115.8 5.91656 115.192 5.67259 114.446 5.67259C113.701 5.67259 113.086 5.91656 112.602 6.40451C112.117 6.88056 111.875 7.52322 111.875 8.3325C111.875 9.14178 112.117 9.79039 112.602 10.2783C113.086 10.7544 113.701 10.9924 114.446 10.9924Z" fill="white"/>
<path d="M130 5.8154H126.609V13.1346H123.721V5.8154H120.33V3.53038H130V5.8154Z" fill="white"/>
<path d="M51.4375 17.5063C51.9376 17.5063 52.3896 17.6213 52.7937 17.8514C53.1978 18.0815 53.5134 18.4016 53.7407 18.8117C53.9731 19.2168 54.0892 19.672 54.0892 20.1771C54.0892 20.6823 53.9731 21.1399 53.7407 21.55C53.5134 21.9552 53.1978 22.2728 52.7937 22.5028C52.3896 22.7329 51.9376 22.8479 51.4375 22.8479C50.9628 22.8479 50.5309 22.7429 50.142 22.5328C49.7531 22.3228 49.44 22.0302 49.2026 21.6551C48.9652 21.28 48.8313 20.8573 48.801 20.3872H47.71V22.8029H47.157V17.5513H47.71V19.8845H48.8086C48.849 19.4294 48.9879 19.0218 49.2253 18.6616C49.4677 18.2965 49.7809 18.0139 50.1647 17.8139C50.5486 17.6088 50.9729 17.5063 51.4375 17.5063ZM51.4375 22.3528C51.8315 22.3528 52.1876 22.2603 52.5058 22.0752C52.824 21.8851 53.074 21.6251 53.2558 21.295C53.4377 20.9649 53.5286 20.5922 53.5286 20.1771C53.5286 19.762 53.4377 19.3894 53.2558 19.0593C53.074 18.7292 52.824 18.4716 52.5058 18.2865C52.1876 18.0965 51.8315 18.0014 51.4375 18.0014C51.0486 18.0014 50.6951 18.0965 50.3769 18.2865C50.0587 18.4716 49.8087 18.7292 49.6268 19.0593C49.445 19.3894 49.3541 19.762 49.3541 20.1771C49.3541 20.5922 49.445 20.9649 49.6268 21.295C49.8087 21.6251 50.0587 21.8851 50.3769 22.0752C50.6951 22.2603 51.0486 22.3528 51.4375 22.3528Z" fill="white"/>
<path d="M57.353 18.8267C57.7268 18.8267 58.0652 18.9117 58.3683 19.0818C58.6713 19.2468 58.9087 19.4819 59.0804 19.787C59.2521 20.0921 59.338 20.4397 59.338 20.8298C59.338 21.2249 59.2521 21.575 59.0804 21.8801C58.9087 22.1852 58.6713 22.4228 58.3683 22.5929C58.0703 22.7579 57.7319 22.8404 57.353 22.8404C57.0298 22.8404 56.7368 22.7754 56.4742 22.6454C56.2166 22.5103 56.0045 22.3153 55.8378 22.0602V24.2584H55.2999V18.8567H55.8151V19.6369C55.9767 19.3769 56.1888 19.1768 56.4515 19.0368C56.7192 18.8967 57.0197 18.8267 57.353 18.8267ZM57.3152 22.3678C57.593 22.3678 57.8455 22.3053 58.0728 22.1802C58.3001 22.0502 58.4768 21.8676 58.6031 21.6326C58.7344 21.3975 58.8001 21.1299 58.8001 20.8298C58.8001 20.5297 58.7344 20.2646 58.6031 20.0346C58.4768 19.7995 58.3001 19.6169 58.0728 19.4869C57.8455 19.3569 57.593 19.2918 57.3152 19.2918C57.0323 19.2918 56.7772 19.3569 56.55 19.4869C56.3277 19.6169 56.1509 19.7995 56.0196 20.0346C55.8934 20.2646 55.8302 20.5297 55.8302 20.8298C55.8302 21.1299 55.8934 21.3975 56.0196 21.6326C56.1509 21.8676 56.3277 22.0502 56.55 22.1802C56.7772 22.3053 57.0323 22.3678 57.3152 22.3678Z" fill="white"/>
<path d="M60.4937 18.8567H61.0317V21.9927L63.6909 18.8567H64.1682V22.8029H63.6303V19.667L60.9786 22.8029H60.4937V18.8567Z" fill="white"/>
<path d="M69.5964 22.3378V23.7557H69.0888V22.8029H65.5204V23.7557H65.0128V22.3378H65.2401C65.5078 22.3228 65.6896 22.1277 65.7856 21.7526C65.8815 21.3775 65.9472 20.8523 65.9825 20.1771L66.0356 18.8567H68.9751V22.3378H69.5964ZM66.475 20.2071C66.4497 20.7673 66.4018 21.2299 66.331 21.595C66.2603 21.9552 66.1341 22.2027 65.9522 22.3378H68.4372V19.3294H66.5204L66.475 20.2071Z" fill="white"/>
<path d="M70.6447 18.8567H71.1826V21.9927L73.8419 18.8567H74.3192V22.8029H73.7813V19.667L71.1296 22.8029H70.6447V18.8567Z" fill="white"/>
<path d="M78.8685 18.8567V22.8029H78.3306V21.1599C77.871 21.36 77.4189 21.46 76.9745 21.46C76.4946 21.46 76.1209 21.3525 75.8532 21.1374C75.5855 20.9173 75.4516 20.5897 75.4516 20.1546V18.8567H75.9895V20.1246C75.9895 20.4197 76.0855 20.6448 76.2774 20.7998C76.4694 20.9498 76.7345 21.0249 77.0729 21.0249C77.4467 21.0249 77.8659 20.9273 78.3306 20.7323V18.8567H78.8685Z" fill="white"/>
<path d="M83.8812 20.9949H80.5476C80.578 21.405 80.7371 21.7376 81.025 21.9927C81.3129 22.2427 81.6765 22.3678 82.1159 22.3678C82.3634 22.3678 82.5907 22.3253 82.7978 22.2402C83.0049 22.1502 83.1842 22.0202 83.3357 21.8501L83.6388 22.1952C83.462 22.4053 83.2397 22.5653 82.972 22.6754C82.7094 22.7854 82.419 22.8404 82.1008 22.8404C81.6917 22.8404 81.328 22.7554 81.0098 22.5854C80.6967 22.4103 80.4517 22.1702 80.2749 21.8651C80.0981 21.56 80.0097 21.2149 80.0097 20.8298C80.0097 20.4447 80.0931 20.0996 80.2598 19.7945C80.4315 19.4894 80.6638 19.2518 80.9568 19.0818C81.2548 18.9117 81.5881 18.8267 81.9568 18.8267C82.3255 18.8267 82.6564 18.9117 82.9493 19.0818C83.2423 19.2518 83.4721 19.4894 83.6388 19.7945C83.8054 20.0946 83.8888 20.4397 83.8888 20.8298L83.8812 20.9949ZM81.9568 19.2843C81.573 19.2843 81.2497 19.4069 80.9871 19.6519C80.7295 19.892 80.583 20.2071 80.5476 20.5972H83.3736C83.3382 20.2071 83.1892 19.892 82.9266 19.6519C82.669 19.4069 82.3457 19.2843 81.9568 19.2843Z" fill="white"/>
<path d="M86.7462 22.8404C86.3523 22.8404 85.9987 22.7554 85.6856 22.5854C85.3775 22.4153 85.135 22.1777 84.9583 21.8726C84.7815 21.5625 84.6931 21.2149 84.6931 20.8298C84.6931 20.4447 84.7815 20.0996 84.9583 19.7945C85.135 19.4894 85.3775 19.2518 85.6856 19.0818C85.9987 18.9117 86.3523 18.8267 86.7462 18.8267C87.0897 18.8267 87.3953 18.8942 87.663 19.0293C87.9357 19.1593 88.1504 19.3519 88.3069 19.6069L87.9054 19.877C87.7741 19.682 87.6074 19.5369 87.4054 19.4419C87.2033 19.3419 86.9836 19.2918 86.7462 19.2918C86.4583 19.2918 86.1982 19.3569 85.9659 19.4869C85.7386 19.6119 85.5593 19.792 85.428 20.0271C85.3017 20.2621 85.2386 20.5297 85.2386 20.8298C85.2386 21.1349 85.3017 21.405 85.428 21.6401C85.5593 21.8701 85.7386 22.0502 85.9659 22.1802C86.1982 22.3053 86.4583 22.3678 86.7462 22.3678C86.9836 22.3678 87.2033 22.3203 87.4054 22.2252C87.6074 22.1302 87.7741 21.9852 87.9054 21.7901L88.3069 22.0602C88.1504 22.3153 87.9357 22.5103 87.663 22.6454C87.3902 22.7754 87.0846 22.8404 86.7462 22.8404Z" fill="white"/>
<path d="M90.7956 21.0474H89.8864V22.8029H89.3485V18.8567H89.8864V20.5897H90.8031L92.2047 18.8567H92.7881L91.2198 20.7698L92.9017 22.8029H92.2653L90.7956 21.0474Z" fill="white"/>
<path d="M95.048 18.8267C95.5682 18.8267 95.9673 18.9567 96.2451 19.2168C96.5228 19.4719 96.6617 19.852 96.6617 20.3572V22.8029H96.1466V22.1877C96.0253 22.3928 95.846 22.5528 95.6087 22.6679C95.3763 22.7829 95.0985 22.8404 94.7753 22.8404C94.3308 22.8404 93.9772 22.7354 93.7146 22.5253C93.452 22.3153 93.3206 22.0377 93.3206 21.6926C93.3206 21.3575 93.4418 21.0874 93.6843 20.8823C93.9318 20.6773 94.3232 20.5747 94.8586 20.5747H96.1238V20.3347C96.1238 19.9946 96.0279 19.737 95.8359 19.5619C95.644 19.3819 95.3637 19.2918 94.995 19.2918C94.7424 19.2918 94.5 19.3344 94.2677 19.4194C94.0353 19.4994 93.8358 19.6119 93.6691 19.757L93.4267 19.3594C93.6287 19.1893 93.8712 19.0593 94.154 18.9692C94.4369 18.8742 94.7349 18.8267 95.048 18.8267ZM94.8586 22.4203C95.1617 22.4203 95.4218 22.3528 95.639 22.2177C95.8561 22.0777 96.0178 21.8776 96.1238 21.6176V20.9724H94.8738C94.1919 20.9724 93.851 21.2074 93.851 21.6776C93.851 21.9076 93.9394 22.0902 94.1161 22.2252C94.2929 22.3553 94.5404 22.4203 94.8586 22.4203Z" fill="white"/>
<path d="M101.155 18.8567V22.8029H100.662V21.4975H99.2605L98.3361 22.8029H97.7528L98.7453 21.4225C98.4372 21.3375 98.1998 21.1924 98.0331 20.9874C97.8664 20.7823 97.7831 20.5222 97.7831 20.2071C97.7831 19.767 97.9346 19.4319 98.2377 19.2018C98.5407 18.9717 98.9549 18.8567 99.4802 18.8567H101.155ZM98.3286 20.2221C98.3286 20.8073 98.7049 21.0999 99.4574 21.0999H100.662V19.3294H99.4953C98.7175 19.3294 98.3286 19.6269 98.3286 20.2221Z" fill="white"/>
<path d="M109.482 20.8223C109.482 21.4375 109.277 21.9201 108.868 22.2703C108.459 22.6204 107.881 22.8104 107.133 22.8404V24.2584H106.611V22.8479C105.868 22.8179 105.292 22.6279 104.883 22.2778C104.479 21.9226 104.277 21.4375 104.277 20.8223C104.277 20.2121 104.479 19.7345 104.883 19.3894C105.292 19.0443 105.868 18.8567 106.611 18.8267V17.2362H107.133V18.8267C107.881 18.8617 108.459 19.0518 108.868 19.3969C109.277 19.742 109.482 20.2171 109.482 20.8223ZM104.807 20.8223C104.807 21.2925 104.959 21.6601 105.262 21.9251C105.57 22.1902 106.02 22.3403 106.611 22.3753V19.2993C106.025 19.3294 105.578 19.4769 105.27 19.742C104.962 20.0021 104.807 20.3622 104.807 20.8223ZM107.133 22.3753C107.724 22.3453 108.174 22.1977 108.482 21.9327C108.795 21.6676 108.952 21.2975 108.952 20.8223C108.952 20.3572 108.795 19.9946 108.482 19.7345C108.174 19.4744 107.724 19.3294 107.133 19.2993V22.3753Z" fill="white"/>
<path d="M110.62 18.8567H111.158V21.9927L113.817 18.8567H114.294V22.8029H113.756V19.667L111.105 22.8029H110.62V18.8567Z" fill="white"/>
<path d="M117.889 18.8267C118.263 18.8267 118.601 18.9117 118.904 19.0818C119.207 19.2468 119.444 19.4819 119.616 19.787C119.788 20.0921 119.874 20.4397 119.874 20.8298C119.874 21.2249 119.788 21.575 119.616 21.8801C119.444 22.1852 119.207 22.4228 118.904 22.5929C118.606 22.7579 118.268 22.8404 117.889 22.8404C117.566 22.8404 117.273 22.7754 117.01 22.6454C116.752 22.5103 116.54 22.3153 116.374 22.0602V24.2584H115.836V18.8567H116.351V19.6369C116.512 19.3769 116.725 19.1768 116.987 19.0368C117.255 18.8967 117.555 18.8267 117.889 18.8267ZM117.851 22.3678C118.129 22.3678 118.381 22.3053 118.609 22.1802C118.836 22.0502 119.013 21.8676 119.139 21.6326C119.27 21.3975 119.336 21.1299 119.336 20.8298C119.336 20.5297 119.27 20.2646 119.139 20.0346C119.013 19.7995 118.836 19.6169 118.609 19.4869C118.381 19.3569 118.129 19.2918 117.851 19.2918C117.568 19.2918 117.313 19.3569 117.086 19.4869C116.864 19.6169 116.687 19.7995 116.555 20.0346C116.429 20.2646 116.366 20.5297 116.366 20.8298C116.366 21.1299 116.429 21.3975 116.555 21.6326C116.687 21.8676 116.864 22.0502 117.086 22.1802C117.313 22.3053 117.568 22.3678 117.851 22.3678Z" fill="white"/>
<path d="M125.484 18.8567V22.8029H124.992V19.682L123.378 22.3228H123.136L121.522 19.6745V22.8029H121.03V18.8567H121.575L123.265 21.7001L124.984 18.8567H125.484Z" fill="white"/>
<path d="M128.386 18.8267C128.907 18.8267 129.306 18.9567 129.583 19.2168C129.861 19.4719 130 19.852 130 20.3572V22.8029H129.485V22.1877C129.364 22.3928 129.184 22.5528 128.947 22.6679C128.715 22.7829 128.437 22.8404 128.114 22.8404C127.669 22.8404 127.316 22.7354 127.053 22.5253C126.79 22.3153 126.659 22.0377 126.659 21.6926C126.659 21.3575 126.78 21.0874 127.023 20.8823C127.27 20.6773 127.662 20.5747 128.197 20.5747H129.462V20.3347C129.462 19.9946 129.366 19.737 129.174 19.5619C128.982 19.3819 128.702 19.2918 128.333 19.2918C128.081 19.2918 127.838 19.3344 127.606 19.4194C127.374 19.4994 127.174 19.6119 127.007 19.757L126.765 19.3594C126.967 19.1893 127.21 19.0593 127.492 18.9692C127.775 18.8742 128.073 18.8267 128.386 18.8267ZM128.197 22.4203C128.5 22.4203 128.76 22.3528 128.977 22.2177C129.194 22.0777 129.356 21.8776 129.462 21.6176V20.9724H128.212C127.53 20.9724 127.189 21.2074 127.189 21.6776C127.189 21.9076 127.278 22.0902 127.454 22.2252C127.631 22.3553 127.879 22.4203 128.197 22.4203Z" fill="white"/>
</svg>
