<svg width="20" height="20" viewBox="0 0 20 20" fill="none" xmlns="http://www.w3.org/2000/svg">
<path fill-rule="evenodd" clip-rule="evenodd" d="M6.22075 0.888343C7.19825 0.843343 7.50992 0.833344 9.99992 0.833344C12.4899 0.833344 12.8016 0.844177 13.7783 0.888343C14.7549 0.93251 15.4216 1.08834 16.0049 1.31418C16.6158 1.54501 17.1699 1.90584 17.6283 2.37251C18.0949 2.83001 18.4549 3.38334 18.6849 3.99501C18.9116 4.57834 19.0666 5.24501 19.1116 6.22001C19.1566 7.19918 19.1666 7.51084 19.1666 10C19.1666 12.49 19.1558 12.8017 19.1116 13.7792C19.0674 14.7542 18.9116 15.4208 18.6849 16.0042C18.4549 16.6159 18.0943 17.1702 17.6283 17.6283C17.1699 18.095 16.6158 18.455 16.0049 18.685C15.4216 18.9117 14.7549 19.0667 13.7799 19.1117C12.8016 19.1567 12.4899 19.1667 9.99992 19.1667C7.50992 19.1667 7.19825 19.1558 6.22075 19.1117C5.24575 19.0675 4.57908 18.9117 3.99575 18.685C3.38402 18.455 2.82977 18.0944 2.37159 17.6283C1.90524 17.1706 1.54435 16.6166 1.31409 16.005C1.08825 15.4217 0.933252 14.755 0.888252 13.78C0.843252 12.8008 0.833252 12.4892 0.833252 10C0.833252 7.51001 0.844085 7.19834 0.888252 6.22168C0.932419 5.24501 1.08825 4.57834 1.31409 3.99501C1.54469 3.38341 1.90585 2.82944 2.37242 2.37168C2.82995 1.90543 3.38365 1.54455 3.99492 1.31418C4.57825 1.08834 5.24492 0.933343 6.21992 0.888343H6.22075ZM13.7041 2.53834C12.7374 2.49418 12.4474 2.48501 9.99992 2.48501C7.55242 2.48501 7.26242 2.49418 6.29575 2.53834C5.40158 2.57918 4.91658 2.72834 4.59325 2.85418C4.16575 3.02084 3.85992 3.21834 3.53909 3.53918C3.23496 3.83505 3.0009 4.19525 2.85408 4.59334C2.72825 4.91668 2.57909 5.40168 2.53825 6.29584C2.49409 7.26251 2.48492 7.55251 2.48492 10C2.48492 12.4475 2.49409 12.7375 2.53825 13.7042C2.57909 14.5983 2.72825 15.0833 2.85408 15.4067C3.00075 15.8042 3.23492 16.165 3.53909 16.4608C3.83492 16.765 4.19575 16.9992 4.59325 17.1458C4.91658 17.2717 5.40158 17.4208 6.29575 17.4617C7.26242 17.5058 7.55158 17.515 9.99992 17.515C12.4483 17.515 12.7374 17.5058 13.7041 17.4617C14.5983 17.4208 15.0833 17.2717 15.4066 17.1458C15.8341 16.9792 16.1399 16.7817 16.4608 16.4608C16.7649 16.165 16.9991 15.8042 17.1458 15.4067C17.2716 15.0833 17.4208 14.5983 17.4616 13.7042C17.5058 12.7375 17.5149 12.4475 17.5149 10C17.5149 7.55251 17.5058 7.26251 17.4616 6.29584C17.4208 5.40168 17.2716 4.91668 17.1458 4.59334C16.9791 4.16584 16.7816 3.86001 16.4608 3.53918C16.1649 3.23507 15.8047 3.00102 15.4066 2.85418C15.0833 2.72834 14.5983 2.57918 13.7041 2.53834ZM8.82908 12.8258C9.48297 13.098 10.2111 13.1348 10.889 12.9298C11.567 12.7248 12.1527 12.2908 12.5463 11.7019C12.9398 11.113 13.1166 10.4057 13.0466 9.70093C12.9766 8.99613 12.6641 8.33749 12.1624 7.83751C11.8426 7.51791 11.4559 7.27319 11.0302 7.12097C10.6045 6.96874 10.1503 6.91281 9.70033 6.95719C9.25039 7.00157 8.81588 7.14516 8.42809 7.37762C8.0403 7.61008 7.70887 7.92563 7.45767 8.30155C7.20647 8.67747 7.04174 9.10442 6.97535 9.55164C6.90895 9.99887 6.94254 10.4553 7.0737 10.8879C7.20486 11.3206 7.43032 11.7189 7.73385 12.0539C8.03738 12.389 8.41144 12.6527 8.82908 12.8258ZM6.66825 6.66834C7.10577 6.23082 7.62518 5.88376 8.19683 5.64698C8.76848 5.41019 9.38117 5.28832 9.99992 5.28832C10.6187 5.28832 11.2314 5.41019 11.803 5.64698C12.3747 5.88376 12.8941 6.23082 13.3316 6.66834C13.7691 7.10586 14.1162 7.62528 14.3529 8.19692C14.5897 8.76857 14.7116 9.38126 14.7116 10C14.7116 10.6188 14.5897 11.2314 14.3529 11.8031C14.1162 12.3747 13.7691 12.8942 13.3316 13.3317C12.448 14.2153 11.2495 14.7117 9.99992 14.7117C8.7503 14.7117 7.55186 14.2153 6.66825 13.3317C5.78464 12.4481 5.28823 11.2496 5.28823 10C5.28823 8.75039 5.78464 7.55196 6.66825 6.66834ZM15.7566 5.99001C15.865 5.88773 15.9518 5.76474 16.0118 5.62832C16.0719 5.4919 16.1039 5.34482 16.1061 5.19578C16.1083 5.04675 16.0805 4.8988 16.0245 4.76068C15.9685 4.62257 15.8853 4.4971 15.7799 4.39171C15.6745 4.28632 15.549 4.20314 15.4109 4.14711C15.2728 4.09107 15.1248 4.06332 14.9758 4.0655C14.8268 4.06767 14.6797 4.09972 14.5433 4.15976C14.4068 4.21979 14.2839 4.30659 14.1816 4.41501C13.9827 4.62587 13.8738 4.90594 13.878 5.19578C13.8822 5.48563 13.9992 5.76241 14.2042 5.96738C14.4092 6.17235 14.686 6.28937 14.9758 6.29359C15.2656 6.29782 15.5457 6.18892 15.7566 5.99001Z" fill="white"/>
</svg>
