<svg width="20" height="20" viewBox="0 0 20 20" fill="none" xmlns="http://www.w3.org/2000/svg">
<g clip-path="url(#clip0)">
<path fill-rule="evenodd" clip-rule="evenodd" d="M19.5417 4.95666C19.68 4.50166 19.5417 4.16666 18.8792 4.16666H16.6917C16.135 4.16666 15.8783 4.45582 15.7392 4.77499C15.7392 4.77499 14.6267 7.43832 13.0508 9.16832C12.5408 9.66999 12.3092 9.82916 12.0308 9.82916C11.8917 9.82916 11.6825 9.66999 11.6825 9.21416V4.95666C11.6825 4.40999 11.5292 4.16666 11.0658 4.16666H7.62583C7.27833 4.16666 7.06917 4.41999 7.06917 4.66082C7.06917 5.17832 7.8575 5.29832 7.93833 6.75499V9.91999C7.93833 10.6142 7.81083 10.74 7.5325 10.74C6.79083 10.74 4.98667 8.06416 3.91583 5.00249C3.70833 4.40666 3.49833 4.16666 2.93917 4.16666H0.75C0.125 4.16666 0 4.45582 0 4.77499C0 5.34332 0.741667 8.16666 3.45417 11.9008C5.2625 14.4508 7.80833 15.8333 10.1275 15.8333C11.5183 15.8333 11.69 15.5267 11.69 14.9975V13.07C11.69 12.4558 11.8217 12.3333 12.2625 12.3333C12.5875 12.3333 13.1433 12.4933 14.4417 13.7225C15.925 15.18 16.1692 15.8333 17.0042 15.8333H19.1917C19.8167 15.8333 20.13 15.5267 19.95 14.92C19.7517 14.3167 19.0433 13.4408 18.1042 12.4017C17.5942 11.81 16.8292 11.1725 16.5967 10.8533C16.2725 10.4442 16.365 10.2617 16.5967 9.89749C16.5967 9.89749 19.2633 6.20916 19.5408 4.95666H19.5417Z" fill="white"/>
</g>
<defs>
<clipPath id="clip0">
<rect width="20" height="20" fill="white"/>
</clipPath>
</defs>
</svg>
