<svg width="20" height="20" viewBox="0 0 20 20" fill="none" xmlns="http://www.w3.org/2000/svg">
<path d="M18.75 9.94533C18.75 9.90236 18.75 9.85353 18.748 9.79689C18.7461 9.63869 18.7422 9.46095 18.7383 9.2715C18.7227 8.72657 18.6953 8.1836 18.6523 7.67188C18.5938 6.9668 18.5078 6.37891 18.3906 5.93751C18.267 5.47686 18.0246 5.05674 17.6876 4.71914C17.3507 4.38153 16.9311 4.13827 16.4707 4.01367C15.918 3.86523 14.8359 3.77344 13.3125 3.7168C12.5879 3.68945 11.8125 3.67187 11.0371 3.66211C10.7656 3.6582 10.5137 3.65625 10.2871 3.6543H9.71289C9.48633 3.65625 9.23438 3.6582 8.96289 3.66211C8.1875 3.67187 7.41211 3.68945 6.6875 3.7168C5.16406 3.77539 4.08008 3.86719 3.5293 4.01367C3.06875 4.13797 2.64896 4.38113 2.312 4.71878C1.97504 5.05642 1.73273 5.47671 1.60938 5.93751C1.49023 6.37891 1.40625 6.9668 1.34766 7.67188C1.30469 8.1836 1.27734 8.72657 1.26172 9.2715C1.25586 9.46095 1.25391 9.63869 1.25195 9.79689C1.25195 9.85353 1.25 9.90236 1.25 9.94533V10.0547C1.25 10.0977 1.25 10.1465 1.25195 10.2031C1.25391 10.3613 1.25781 10.5391 1.26172 10.7285C1.27734 11.2735 1.30469 11.8164 1.34766 12.3281C1.40625 13.0332 1.49219 13.6211 1.60938 14.0625C1.85938 14.9981 2.59375 15.7364 3.5293 15.9864C4.08008 16.1348 5.16406 16.2266 6.6875 16.2832C7.41211 16.3106 8.1875 16.3282 8.96289 16.3379C9.23438 16.3418 9.48633 16.3438 9.71289 16.3457H10.2871C10.5137 16.3438 10.7656 16.3418 11.0371 16.3379C11.8125 16.3282 12.5879 16.3106 13.3125 16.2832C14.8359 16.2246 15.9199 16.1328 16.4707 15.9864C17.4062 15.7364 18.1406 15 18.3906 14.0625C18.5098 13.6211 18.5938 13.0332 18.6523 12.3281C18.6953 11.8164 18.7227 11.2735 18.7383 10.7285C18.7441 10.5391 18.7461 10.3613 18.748 10.2031C18.748 10.1465 18.75 10.0977 18.75 10.0547V9.94533ZM17.3438 10.0469C17.3438 10.0879 17.3438 10.1328 17.3418 10.1856C17.3398 10.3379 17.3359 10.5059 17.332 10.6875C17.3184 11.207 17.291 11.7266 17.25 12.209C17.1973 12.8379 17.123 13.3535 17.0312 13.6992C16.9102 14.1504 16.5547 14.5078 16.1055 14.627C15.6953 14.7364 14.6621 14.8242 13.2578 14.877C12.5469 14.9043 11.7812 14.9219 11.0176 14.9317C10.75 14.9356 10.502 14.9375 10.2793 14.9375H9.7207L8.98242 14.9317C8.21875 14.9219 7.45508 14.9043 6.74219 14.877C5.33789 14.8223 4.30273 14.7364 3.89453 14.627C3.44531 14.5059 3.08984 14.1504 2.96875 13.6992C2.87695 13.3535 2.80273 12.8379 2.75 12.209C2.70898 11.7266 2.68359 11.207 2.66797 10.6875C2.66211 10.5059 2.66016 10.336 2.6582 10.1856C2.6582 10.1328 2.65625 10.086 2.65625 10.0469V9.95314C2.65625 9.91212 2.65625 9.8672 2.6582 9.81447C2.66016 9.66212 2.66406 9.49415 2.66797 9.31251C2.68164 8.79298 2.70898 8.27345 2.75 7.79102C2.80273 7.16212 2.87695 6.64649 2.96875 6.30079C3.08984 5.84961 3.44531 5.49219 3.89453 5.37305C4.30469 5.26368 5.33789 5.17578 6.74219 5.12305C7.45313 5.09571 8.21875 5.07813 8.98242 5.06836C9.25 5.06446 9.49805 5.0625 9.7207 5.0625H10.2793L11.0176 5.06836C11.7812 5.07813 12.5449 5.09571 13.2578 5.12305C14.6621 5.17774 15.6973 5.26368 16.1055 5.37305C16.5547 5.49414 16.9102 5.84961 17.0312 6.30079C17.123 6.64649 17.1973 7.16212 17.25 7.79102C17.291 8.27345 17.3164 8.79298 17.332 9.31251C17.3379 9.49415 17.3398 9.66408 17.3418 9.81447C17.3418 9.8672 17.3438 9.91408 17.3438 9.95314V10.0469ZM8.26172 12.6172L12.793 9.98048L8.26172 7.38282V12.6172Z" fill="white"/>
</svg>
